<?xml version="1.0" encoding="utf-8"?>
<!-- Generator: Adobe Illustrator 14.0.0, SVG Export Plug-In . SVG Version: 6.00 Build 43363)  -->
<!DOCTYPE svg PUBLIC "-//W3C//DTD SVG 1.1//EN" "http://www.w3.org/Graphics/SVG/1.1/DTD/svg11.dtd">
<svg version="1.1" id="Layer_1" xmlns="http://www.w3.org/2000/svg" xmlns:xlink="http://www.w3.org/1999/xlink" x="0px" y="0px"
	 width="288px" height="105.333px" viewBox="0 0 288 105.333" enable-background="new 0 0 288 105.333" xml:space="preserve">
<g>
	<defs>
		<rect id="SVGID_1_" x="-176" y="-77.57" width="1290" height="1942"/>
	</defs>
	<clipPath id="SVGID_2_">
		<use xlink:href="#SVGID_1_"  overflow="visible"/>
	</clipPath>
	<path clip-path="url(#SVGID_2_)" fill="#C10E80" d="M14.614,22.918c-4.073,0.494-3.831,0.487-7.158,1.234
		C6.872,24.284,4.932,87.184,4,100.55c35.792-11.354,65.371-9.283,65.29-9.256"/>
	<path clip-path="url(#SVGID_2_)" fill="#4D1B5D" d="M71.512,91.541c-22.504-3.47-51.786-0.165-60.6,2.098
		c0,0,3.601-62.847,3.949-74.301c21.268-2.43,39.786,0.04,45.049,0.989C60.28,22.178,71.52,91.534,71.512,91.541"/>
	<path clip-path="url(#SVGID_2_)" fill="#4D1B5D" d="M65.483,19.776c12.466-5.924,21.105-10.121,48.751-14.779
		c1.357,4.288,17.164,59.536,22.83,75.056c-36.529,1.31-45.787,6.741-58.704,10.119C77.578,86.423,65.432,19.776,65.483,19.776"/>
	<path clip-path="url(#SVGID_2_)" fill="#C10E80" d="M107.428,2.43c0,0,32.027,71.461,30.547,68.129
		c-31.799,3.775-56.155,18.954-59.508,19.926c-0.265,0.078-0.405,0.063-0.413-0.055c-2.248-14.059-12.151-66.603-12.836-70.598
		C73.107,15.458,87.66,7.344,107.428,2.43"/>
	<polygon clip-path="url(#SVGID_2_)" fill="#222222" points="152.363,7.73 155.779,7.73 163.215,22.49 163.27,22.49 163.27,7.73 
		165.73,7.73 165.73,26.591 162.506,26.591 154.879,11.475 154.824,11.475 154.824,26.591 152.363,26.591 	"/>
	<path clip-path="url(#SVGID_2_)" fill="#222222" d="M174.096,19.019h5.385l-2.598-8.774h-0.055L174.096,19.019z M175.161,7.73
		h3.362l6.451,18.861h-2.897l-1.86-5.385h-6.75l-1.832,5.385h-2.897L175.161,7.73z"/>
	<polygon clip-path="url(#SVGID_2_)" fill="#222222" points="189.977,9.917 185.275,9.917 185.275,7.729 197.412,7.729 
		197.412,9.917 192.711,9.917 192.711,26.592 189.977,26.592 	"/>
	<rect x="200.2" y="7.729" clip-path="url(#SVGID_2_)" fill="#222222" width="2.733" height="18.861"/>
	<path clip-path="url(#SVGID_2_)" fill="#222222" d="M210.121,19.771c0.109,0.848,0.318,1.65,0.63,2.406
		c0.309,0.757,0.756,1.367,1.339,1.832c0.584,0.464,1.32,0.697,2.214,0.697s1.631-0.233,2.215-0.697
		c0.582-0.465,1.028-1.071,1.339-1.818c0.31-0.747,0.523-1.549,0.643-2.406c0.117-0.856,0.177-1.73,0.177-2.624
		c0-0.893-0.06-1.767-0.177-2.624c-0.119-0.857-0.333-1.658-0.643-2.406c-0.311-0.746-0.757-1.353-1.339-1.817
		c-0.584-0.465-1.321-0.697-2.215-0.697s-1.63,0.232-2.214,0.697c-0.583,0.464-1.03,1.071-1.339,1.817
		c-0.312,0.748-0.521,1.549-0.63,2.406c-0.108,0.857-0.163,1.731-0.163,2.624C209.958,18.054,210.013,18.923,210.121,19.771
		 M210.777,26.126c-0.967-0.51-1.727-1.216-2.283-2.118c-0.555-0.902-0.951-1.932-1.188-3.089c-0.236-1.158-0.355-2.41-0.355-3.759
		c0-1.366,0.119-2.624,0.355-3.772s0.633-2.173,1.188-3.075c0.557-0.902,1.316-1.608,2.283-2.119
		c0.967-0.51,2.142-0.765,3.526-0.765c1.403,0,2.583,0.255,3.54,0.765c0.956,0.511,1.717,1.212,2.282,2.105
		c0.565,0.894,0.966,1.919,1.202,3.075c0.238,1.157,0.355,2.42,0.355,3.786c0,1.367-0.117,2.624-0.355,3.772
		c-0.236,1.149-0.637,2.169-1.202,3.062c-0.565,0.893-1.326,1.599-2.282,2.119c-0.957,0.518-2.137,0.779-3.54,0.779
		C212.919,26.893,211.744,26.636,210.777,26.126"/>
	<polygon clip-path="url(#SVGID_2_)" fill="#222222" points="225.702,7.73 229.119,7.73 236.555,22.49 236.607,22.49 236.607,7.73 
		239.068,7.73 239.068,26.591 235.844,26.591 228.217,11.475 228.163,11.475 228.163,26.591 225.702,26.591 	"/>
	<path clip-path="url(#SVGID_2_)" fill="#222222" d="M247.434,19.019h5.385l-2.596-8.774h-0.057L247.434,19.019z M248.5,7.73h3.362
		l6.45,18.861h-2.896l-1.859-5.385h-6.752l-1.832,5.385h-2.896L248.5,7.73z"/>
	<polygon clip-path="url(#SVGID_2_)" fill="#222222" points="261.319,7.73 264.053,7.73 264.053,24.404 271.297,24.404 
		271.297,26.591 261.319,26.591 	"/>
	<polygon clip-path="url(#SVGID_2_)" fill="#222222" points="276.053,9.917 271.351,9.917 271.351,7.729 283.488,7.729 
		283.488,9.917 278.787,9.917 278.787,26.592 276.053,26.592 	"/>
	<polygon clip-path="url(#SVGID_2_)" fill="#222222" points="152.363,7.73 155.779,7.73 163.215,22.49 163.27,22.49 163.27,7.73 
		165.73,7.73 165.73,26.591 162.506,26.591 154.879,11.475 154.824,11.475 154.824,26.591 152.363,26.591 	"/>
	<path clip-path="url(#SVGID_2_)" fill="#222222" d="M174.096,19.019h5.385l-2.598-8.774h-0.055L174.096,19.019z M175.161,7.73
		h3.362l6.451,18.861h-2.897l-1.86-5.385h-6.75l-1.832,5.385h-2.897L175.161,7.73z"/>
	<polygon clip-path="url(#SVGID_2_)" fill="#222222" points="189.977,9.917 185.275,9.917 185.275,7.729 197.412,7.729 
		197.412,9.917 192.711,9.917 192.711,26.592 189.977,26.592 	"/>
	<rect x="200.2" y="7.729" clip-path="url(#SVGID_2_)" fill="#222222" width="2.733" height="18.861"/>
	<polygon clip-path="url(#SVGID_2_)" fill="#222222" points="225.702,7.73 229.119,7.73 236.555,22.49 236.607,22.49 236.607,7.73 
		239.068,7.73 239.068,26.591 235.844,26.591 228.217,11.475 228.163,11.475 228.163,26.591 225.702,26.591 	"/>
	<polygon clip-path="url(#SVGID_2_)" fill="#222222" points="261.319,7.73 264.053,7.73 264.053,24.404 271.297,24.404 
		271.297,26.591 261.319,26.591 	"/>
	<polygon clip-path="url(#SVGID_2_)" fill="#222222" points="276.053,9.917 271.351,9.917 271.351,7.729 283.488,7.729 
		283.488,9.917 278.787,9.917 278.787,26.592 276.053,26.592 	"/>
	<polygon clip-path="url(#SVGID_2_)" fill="#222222" points="152,33.73 154.366,33.73 158.602,46.707 158.646,46.707 162.926,33.73 
		165.292,33.73 159.998,49.276 157.204,49.276 	"/>
	<rect x="166.936" y="33.73" clip-path="url(#SVGID_2_)" fill="#222222" width="2.254" height="15.545"/>
	<path clip-path="url(#SVGID_2_)" fill="#222222" d="M175.249,47.473h1.33c0.75-0.015,1.397-0.109,1.937-0.281
		c0.541-0.173,1.004-0.473,1.385-0.901c0.384-0.429,0.674-1.033,0.867-1.814c0.196-0.781,0.293-1.771,0.293-2.974
		c0-1.201-0.097-2.197-0.293-2.985c-0.193-0.788-0.483-1.4-0.867-1.836c-0.381-0.435-0.844-0.736-1.385-0.902
		c-0.539-0.164-1.193-0.247-1.959-0.247h-1.308V47.473z M172.996,33.73h3.988c2.313,0,3.984,0.634,5.012,1.904
		c1.029,1.269,1.544,3.209,1.544,5.823c0,1.562-0.165,2.857-0.496,3.886c-0.33,1.029-0.793,1.829-1.384,2.4
		c-0.596,0.57-1.279,0.968-2.051,1.193c-0.775,0.226-1.649,0.339-2.625,0.339h-3.988V33.73z"/>
	<polygon clip-path="url(#SVGID_2_)" fill="#222222" points="186.58,33.73 195.164,33.73 195.164,35.533 188.834,35.533 
		188.834,40.286 194.849,40.286 194.849,42.089 188.834,42.089 188.834,47.473 195.365,47.473 195.365,49.276 186.58,49.276 	"/>
	<polygon clip-path="url(#SVGID_2_)" fill="#222222" points="198.07,33.73 200.886,33.73 207.014,45.896 207.059,45.896 
		207.059,33.73 209.086,33.73 209.086,49.276 206.428,49.276 200.143,36.817 200.098,36.817 200.098,49.276 198.07,49.276 	"/>
	<path clip-path="url(#SVGID_2_)" fill="#222222" d="M222.4,48.599c-0.51,0.225-1.119,0.435-1.825,0.63
		c-0.705,0.196-1.456,0.294-2.253,0.294c-0.886,0-1.701-0.147-2.443-0.44c-0.744-0.293-1.396-0.762-1.961-1.408
		c-0.563-0.646-1.002-1.498-1.316-2.557c-0.316-1.059-0.475-2.323-0.475-3.796c0-1.096,0.098-2.11,0.293-3.041
		c0.195-0.931,0.522-1.757,0.98-2.479c0.458-0.72,1.07-1.286,1.837-1.7c0.765-0.413,1.688-0.62,2.771-0.62
		c1.563,0,2.785,0.414,3.672,1.24c0.886,0.825,1.33,1.915,1.33,3.266h-2.614c0-0.285-0.03-0.578-0.091-0.879
		c-0.061-0.3-0.176-0.588-0.348-0.867c-0.174-0.277-0.426-0.506-0.755-0.687c-0.332-0.18-0.751-0.27-1.263-0.27
		c-0.691,0-1.262,0.184-1.712,0.551c-0.451,0.369-0.792,0.842-1.025,1.42s-0.39,1.179-0.473,1.802
		c-0.082,0.623-0.123,1.258-0.123,1.903c0,1.022,0.069,1.938,0.213,2.749s0.373,1.518,0.688,2.118
		c0.313,0.601,0.742,1.066,1.283,1.396c0.541,0.331,1.201,0.496,1.982,0.496c0.751,0,1.404-0.112,1.96-0.337
		c0.556-0.226,1.067-0.489,1.532-0.789l0.135-0.09V48.599z"/>
	<polygon clip-path="url(#SVGID_2_)" fill="#222222" points="225.216,33.73 233.8,33.73 233.8,35.533 227.469,35.533 
		227.469,40.286 233.484,40.286 233.484,42.089 227.469,42.089 227.469,47.473 234.002,47.473 234.002,49.276 225.216,49.276 	"/>
	<polygon clip-path="url(#SVGID_2_)" fill="#222222" points="236.705,33.73 239.521,33.73 245.648,45.896 245.693,45.896 
		245.693,33.73 247.722,33.73 247.722,49.276 245.063,49.276 238.777,36.817 238.732,36.817 238.732,49.276 236.705,49.276 	"/>
	<polygon clip-path="url(#SVGID_2_)" fill="#222222" points="253.602,35.533 249.727,35.533 249.727,33.731 259.729,33.731 
		259.729,35.533 255.854,35.533 255.854,49.275 253.602,49.275 	"/>
	<polygon clip-path="url(#SVGID_2_)" fill="#222222" points="261.756,33.73 270.34,33.73 270.34,35.533 264.009,35.533 
		264.009,40.286 270.023,40.286 270.023,42.089 264.009,42.089 264.009,47.473 270.542,47.473 270.542,49.276 261.756,49.276 	"/>
	<path clip-path="url(#SVGID_2_)" fill="#222222" d="M275.477,40.782h1.307c0.42,0,0.822-0.044,1.205-0.135
		c0.383-0.09,0.729-0.24,1.036-0.451c0.308-0.21,0.552-0.491,0.733-0.845c0.18-0.352,0.269-0.776,0.269-1.272
		c0-0.901-0.231-1.551-0.698-1.949c-0.465-0.398-1.141-0.597-2.026-0.597h-1.825V40.782z M273.224,33.73h4.506
		c0.63,0,1.22,0.071,1.769,0.214c0.547,0.142,1.027,0.375,1.441,0.698c0.413,0.323,0.74,0.747,0.98,1.273
		c0.24,0.526,0.359,1.157,0.359,1.892c0,0.586-0.082,1.092-0.248,1.521c-0.164,0.428-0.387,0.781-0.664,1.059
		c-0.277,0.278-0.597,0.503-0.957,0.676c-0.36,0.172-0.759,0.312-1.193,0.416v0.045c0.496,0.105,0.9,0.259,1.215,0.462
		c0.316,0.203,0.564,0.443,0.745,0.722c0.18,0.277,0.315,0.57,0.405,0.878c0.09,0.308,0.188,0.717,0.293,1.227l0.022,0.135
		l0.923,4.327h-2.05l-0.946-3.448l-0.021-0.045c-0.182-0.676-0.335-1.19-0.463-1.543c-0.127-0.353-0.293-0.653-0.495-0.901
		c-0.203-0.248-0.47-0.435-0.8-0.563c-0.332-0.127-0.76-0.191-1.284-0.191h-1.284v6.691h-2.253V33.73z"/>
	<polygon clip-path="url(#SVGID_2_)" fill="#222222" points="152.648,79.769 152.648,74.697 153.635,74.697 153.635,78.584 
		157.143,78.584 157.143,74.879 158.13,74.879 158.13,78.584 163.127,78.584 163.127,79.769 	"/>
	<path clip-path="url(#SVGID_2_)" fill="#222222" d="M159.428,71.971c0.502-0.064,0.973-0.184,1.412-0.356
		c0.442-0.172,0.797-0.422,1.064-0.751c0.268-0.329,0.402-0.741,0.402-1.237s-0.135-0.906-0.402-1.231
		c-0.268-0.323-0.622-0.572-1.064-0.744c-0.439-0.172-0.91-0.291-1.412-0.357c-0.5-0.066-1.024-0.098-1.57-0.098
		c-0.547,0-1.071,0.032-1.572,0.098c-0.502,0.066-0.964,0.185-1.389,0.357c-0.426,0.172-0.771,0.421-1.033,0.744
		c-0.264,0.325-0.395,0.735-0.395,1.231s0.131,0.908,0.395,1.237c0.263,0.329,0.609,0.579,1.04,0.751
		c0.43,0.173,0.894,0.292,1.389,0.356c0.496,0.066,1.019,0.099,1.565,0.099C158.403,72.07,158.928,72.037,159.428,71.971
		 M162.838,71.44c-0.304,0.492-0.711,0.876-1.222,1.154c-0.513,0.278-1.084,0.476-1.718,0.592c-0.631,0.116-1.307,0.175-2.026,0.175
		c-0.719,0-1.394-0.059-2.026-0.175c-0.634-0.116-1.203-0.314-1.709-0.592c-0.506-0.278-0.908-0.662-1.207-1.154
		c-0.3-0.491-0.449-1.096-0.449-1.814c0-0.719,0.149-1.322,0.449-1.808c0.299-0.486,0.701-0.868,1.207-1.146
		c0.506-0.279,1.075-0.476,1.709-0.593c0.633-0.116,1.308-0.174,2.026-0.174c0.72,0,1.396,0.058,2.026,0.174
		c0.634,0.117,1.205,0.312,1.718,0.585c0.511,0.274,0.918,0.655,1.222,1.147c0.305,0.491,0.455,1.096,0.455,1.815
		C163.293,70.344,163.143,70.949,162.838,71.44"/>
	<path clip-path="url(#SVGID_2_)" fill="#222222" d="M157.477,62.199v-0.653c0-0.404-0.027-0.774-0.084-1.108
		c-0.055-0.334-0.158-0.638-0.311-0.911c-0.15-0.273-0.364-0.491-0.639-0.653c-0.272-0.162-0.616-0.243-1.031-0.243
		c-0.426,0-0.762,0.076-1.01,0.227c-0.248,0.153-0.426,0.355-0.532,0.608c-0.104,0.253-0.171,0.519-0.197,0.797
		c-0.024,0.279-0.038,0.631-0.038,1.055v0.881H157.477z M152.648,63.384v-2.597c0-0.293,0.021-0.61,0.067-0.949
		s0.155-0.693,0.327-1.063c0.172-0.369,0.439-0.684,0.805-0.942c0.364-0.258,0.846-0.387,1.442-0.387
		c0.446,0,0.826,0.061,1.14,0.183c0.314,0.121,0.569,0.283,0.766,0.486c0.197,0.202,0.35,0.423,0.457,0.66
		c0.105,0.239,0.195,0.504,0.265,0.797h0.031c0.172-0.648,0.42-1.075,0.743-1.283c0.324-0.207,0.83-0.382,1.519-0.523h0.046
		l2.871-0.607v1.184l-2.415,0.516c-0.841,0.173-1.425,0.401-1.754,0.684c-0.329,0.284-0.494,0.805-0.494,1.564v1.093h4.663v1.185
		H152.648z"/>
	<polygon clip-path="url(#SVGID_2_)" fill="#222222" points="166.945,56.903 170.012,56.903 170.012,77.375 178.14,77.375 
		178.14,80.061 166.945,80.061 	"/>
	<path clip-path="url(#SVGID_2_)" fill="#222222" d="M188.225,67.845h4.416l-0.521-8.088h-0.061L188.225,67.845z M190.739,56.903
		h12.331v2.686h-7.914l0.553,8.256h7.023v2.685h-6.84l0.46,6.846h6.993v2.685H193.5l-0.675-9.531h-5.981l-4.601,9.531h-3.435
		L190.739,56.903z"/>
	<path clip-path="url(#SVGID_2_)" fill="#C10E80" d="M211.418,66.133c1.564-0.973,3.435-2.08,3.435-3.892
		c0-1.948-1.409-3.022-3.495-3.022c-2.147,0-4.57,1.008-4.97,1.142v-3.155c0.705-0.201,2.792-0.671,4.815-0.671
		c3.957,0,7.023,1.846,7.023,5.974c0,3.557-2.637,4.866-4.601,6.108l-1.933,1.242c-1.656,1.074-3.435,2.047-3.435,4.463
		c0,2.518,2.024,3.423,4.019,3.423c2.361,0,4.385-0.939,5.612-1.711v3.491c-0.644,0.235-2.853,0.905-5.366,0.905
		c-4.356,0-7.639-2.114-7.639-6.578c0-3.658,2.393-5.101,4.447-6.376L211.418,66.133z"/>
	<polygon clip-path="url(#SVGID_2_)" fill="#222222" points="221.447,56.903 225.283,56.903 233.625,75.026 233.686,75.026 
		233.686,56.903 236.445,56.903 236.445,80.061 232.826,80.061 224.27,61.501 224.209,61.501 224.209,80.061 221.447,80.061 	"/>
	<rect x="241.323" y="56.904" clip-path="url(#SVGID_2_)" fill="#222222" width="3.067" height="23.157"/>
	<polygon clip-path="url(#SVGID_2_)" fill="#222222" points="249.267,56.903 253.102,56.903 261.443,75.026 261.504,75.026 
		261.504,56.903 264.265,56.903 264.265,80.061 260.646,80.061 252.088,61.501 252.027,61.501 252.027,80.061 249.267,80.061 	"/>
	<path clip-path="url(#SVGID_2_)" fill="#222222" d="M282.98,78.249c-0.645,0.536-3.067,2.181-6.563,2.181
		c-5.46,0-8.926-3.691-8.926-12.652c0-6.377,2.3-11.244,8.312-11.244c3.834,0,7.055,2.115,7.055,6.579h-3.404
		c0-1.98-1.012-3.893-3.682-3.893c-3.986,0-4.906,4.362-4.906,8.558c0,4.396,0.583,9.968,5.459,9.968
		c1.871,0,3.375-0.571,3.589-0.906v-7.452h-4.509v-2.685h7.576V78.249z"/>
	<rect x="724" y="332.43" clip-path="url(#SVGID_2_)" fill="#FFFFFF" width="210" height="40"/>
</g>
</svg>
